<svg width="30" height="22" viewBox="0 0 30 22" fill="none" xmlns="http://www.w3.org/2000/svg">
<g id="&#208;&#161;&#209;&#130;&#209;&#128;&#208;&#181;&#208;&#187;&#208;&#186;&#208;&#176;">
<path fill-rule="evenodd" clip-rule="evenodd" d="M12.6942 17.9061C13.9677 19.2279 16.0323 19.2279 17.3058 17.9061L26.0014 8.88046C27.2749 7.55869 27.2749 5.41567 26.0014 4.09389C24.728 2.77212 22.6633 2.77212 21.3899 4.09389L15 10.7262L8.61013 4.09389C7.33668 2.77212 5.27201 2.77212 3.99856 4.09389C2.72512 5.41567 2.72512 7.55869 3.99857 8.88046L12.6942 17.9061Z" fill="#0ABAEE"/>
<path fill-rule="evenodd" clip-rule="evenodd" d="M10.5229 20.0801C12.9891 22.64 17.0109 22.64 19.4771 20.0801L28.1728 11.0545C30.6091 8.52574 30.6091 4.44863 28.1728 1.9199C25.7065 -0.639967 21.6848 -0.639967 19.2185 1.9199L15 6.29849L10.7815 1.9199C8.31522 -0.639967 4.29348 -0.639967 1.8272 1.9199C-0.609066 4.44862 -0.609068 8.52574 1.8272 11.0545L10.5229 20.0801ZM8.61013 4.09389C7.33668 2.77212 5.27201 2.77212 3.99856 4.09389C2.72512 5.41567 2.72512 7.55869 3.99857 8.88046L12.6942 17.9061C13.9677 19.2279 16.0323 19.2279 17.3058 17.9061L26.0014 8.88046C27.2749 7.55869 27.2749 5.41567 26.0014 4.09389C24.728 2.77212 22.6633 2.77212 21.3899 4.09389L15 10.7262L8.61013 4.09389Z" fill="black"/>
</g>
</svg>
