<svg width="68" height="86" viewBox="0 0 68 86" fill="none" xmlns="http://www.w3.org/2000/svg">
<path d="M42.8571 3V20.7778C42.8571 21.9565 43.3237 23.087 44.1542 23.9205C44.9848 24.754 46.1112 25.2222 47.2857 25.2222H65" fill="#0ABBEF"/>
<path d="M56.1429 83H11.8571C9.50808 83 7.25523 82.0635 5.5942 80.3965C3.93316 78.7295 3 76.4686 3 74.1111V11.8889C3 9.53141 3.93316 7.27048 5.5942 5.60349C7.25523 3.9365 9.50808 3 11.8571 3H42.8571L65 25.2222V74.1111C65 76.4686 64.0668 78.7295 62.4058 80.3965C60.7448 82.0635 58.4919 83 56.1429 83Z" fill="#0ABBEF"/>
<path d="M42.8571 3V20.7778C42.8571 21.9565 43.3237 23.087 44.1542 23.9205C44.9848 24.754 46.1112 25.2222 47.2857 25.2222H65M42.8571 3H11.8571C9.50808 3 7.25523 3.9365 5.5942 5.60349C3.93316 7.27048 3 9.53141 3 11.8889V74.1111C3 76.4686 3.93316 78.7295 5.5942 80.3965C7.25523 82.0635 9.50808 83 11.8571 83H56.1429C58.4919 83 60.7448 82.0635 62.4058 80.3965C64.0668 78.7295 65 76.4686 65 74.1111V25.2222M42.8571 3L65 25.2222" stroke="black" stroke-width="5" stroke-linecap="round" stroke-linejoin="round"/>
<path d="M31.4992 62.6667C31.4992 64.0474 32.6185 65.1667 33.9992 65.1667C35.3799 65.1667 36.4992 64.0474 36.4992 62.6667V36C36.4992 34.6193 35.3799 33.5 33.9992 33.5C32.6185 33.5 31.4992 34.6193 31.4992 36V62.6667Z" fill="white" stroke="black" stroke-width="5" stroke-linecap="round" stroke-linejoin="round"/>
<path d="M48.5998 48.0137L46.8352 49.7846L48.5998 48.0137C46.6437 46.0646 43.4779 46.0702 41.5287 48.0264L38.9992 50.565V36C38.9992 33.2386 36.7606 31 33.9992 31C31.2377 31 28.9992 33.2386 28.9992 36V50.565L26.4696 48.0264C24.5205 46.0702 21.3546 46.0646 19.3985 48.0137L21.1631 49.7846L19.3985 48.0137C17.4424 49.9628 17.4368 53.1286 19.3859 55.0848L21.1568 53.3202L19.3859 55.0848L30.4573 66.1959C31.3955 67.1374 32.67 67.6667 33.9992 67.6667C35.3283 67.6667 36.6028 67.1374 37.541 66.1959L48.6124 55.0848C50.5616 53.1286 50.5559 49.9628 48.5998 48.0137Z" fill="white" stroke="black" stroke-width="5" stroke-linecap="round" stroke-linejoin="round"/>
</svg>
