<svg width="96" height="66" viewBox="0 0 96 66" fill="none" xmlns="http://www.w3.org/2000/svg">
<g id="Frame 88">
<g id="Group">
<path id="Vector" fill-rule="evenodd" clip-rule="evenodd" d="M3.71948 39.3628C3.75021 17.5785 23.6014 -0.0461277 48.0467 9.06941e-05C72.4997 0.038606 92.2972 17.7326 92.2511 39.5168L92.2203 41.7045L92.2588 48.2906L92.2972 52.3733C92.2972 54.4069 91.6672 56.271 90.4534 57.7808C89.4086 59.0749 86.9656 61.2472 82.3101 61.2472H81.8722C80.7352 61.2472 79.798 61.2318 78.7071 61.2164H78.5073C77.0093 61.1933 75.1271 61.1625 71.985 61.1548H69.7725C64.4284 61.1473 59.0958 61.6502 53.8469 62.6569L53.7855 62.6646C53.0941 62.8186 51.2426 63.2577 50.1594 63.612L48.2388 64.2283L46.3028 63.7045C44.5052 63.2115 42.6921 62.7493 42.3695 62.6877C40.7178 62.341 34.7409 61.2318 26.636 61.2241H26.3594C21.7961 61.2318 19.4607 61.278 17.5938 61.3088H17.4018C16.1956 61.3319 15.1662 61.355 13.8372 61.355H13.8064C7.92942 61.355 3.82704 57.7346 3.80399 52.5735L3.72716 41.8817L3.71948 39.3628Z" fill="#001689"/>
<path id="Vector_2" fill-rule="evenodd" clip-rule="evenodd" d="M3.71167 43.4454C3.76545 21.276 23.6474 5.39224 48.0773 5.43846C72.4996 5.48467 92.3355 21.43 92.297 43.6303V43.9846L3.71935 44.1618V43.4608L3.71167 43.4454Z" fill="#FEFEFE"/>
<path id="Vector_3" fill-rule="evenodd" clip-rule="evenodd" d="M47.9853 6.41676C31.668 6.41676 17.4249 13.6114 10.0344 25.0736C13.8141 34.4328 29.7474 41.4811 48.8304 41.512C66.8839 41.5428 82.1258 35.2956 86.9657 26.7221C79.8979 14.3278 65.1324 6.44757 48.0698 6.40906H47.993" fill="url(#paint0_radial_2035_3380)"/>
<path id="Vector_4" fill-rule="evenodd" clip-rule="evenodd" d="M67.8133 22.6164C65.8927 21.3068 61.5368 18.1024 59.2782 17.4707C55.9056 16.5155 52.1336 19.4504 50.0747 19.8587C48.0235 20.2438 46.5255 17.7942 44.6202 17.7557C43.0838 17.7249 35.6472 20.7137 33.5576 21.4994L38.1286 23.456C38.7586 23.8643 55.752 27.5771 68.8274 23.8411L67.8133 22.6087V22.6164Z" fill="#FEFEFE"/>
<path id="Vector_5" fill-rule="evenodd" clip-rule="evenodd" d="M33.5576 21.4993C35.6472 20.7136 43.0838 17.7248 44.6202 17.7556C45.4499 17.7633 46.2028 18.2409 46.9557 18.7493C45.8801 18.4643 43.9903 17.2857 43.1452 19.2731C42.715 20.2899 41.9929 22.4853 41.1017 22.8011C38.8738 23.9566 33.5576 21.4993 33.5576 21.4993Z" fill="#3EBFEF"/>
<path id="Vector_6" fill-rule="evenodd" clip-rule="evenodd" d="M53.1939 20.105C54.9531 19.1422 55.4679 18.3487 55.7444 17.6093C53.4628 18.2332 50.966 19.8354 49.7445 19.8894C49.322 19.9048 49.0684 19.8277 48.7535 19.743C48.6613 20.2052 48.2157 21.1141 47.9468 21.6534C47.4244 22.7318 46.2567 23.194 45.4424 23.8333L45.427 23.8564C46.8482 24.3957 48.0467 25.8592 49.5063 25.605L50.1747 25.2969C50.4436 24.3571 51.1504 21.2143 53.1939 20.0973" fill="#EBF6FC"/>
<path id="Vector_7" fill-rule="evenodd" clip-rule="evenodd" d="M56.213 17.4861C54.5383 17.9175 52.295 18.9728 51.0044 19.5505C50.482 19.7893 51.135 21.5841 51.1964 22.3775C51.6655 21.4829 52.405 20.7602 53.3091 20.3131C54.8532 19.4735 55.6676 18.9497 55.8981 18.2949L56.1592 17.6093L56.213 17.4784V17.4861Z" fill="#93D5F5"/>
<g id="Mask group">
<mask id="mask0_2035_3380" style="mask-type:luminance" maskUnits="userSpaceOnUse" x="4" y="6" width="88" height="38">
<g id="Group_2">
<path id="Vector_8" d="M4.64123 43.1758L91.3752 42.9909C91.0371 21.6226 71.7544 6.46297 48.0696 6.41675H47.9928C24.2082 6.41675 4.84097 21.6919 4.63354 43.1758H4.64123Z" fill="white"/>
</g>
</mask>
<g mask="url(#mask0_2035_3380)">
<path id="Vector_9" fill-rule="evenodd" clip-rule="evenodd" d="M1.33773 20.652C1.33773 20.652 5.44779 20.4286 24.4924 17.2164C33.2195 15.7451 45.5728 25.8284 53.0401 24.9195C60.4996 23.9951 71.0552 20.5441 78.776 20.3284C85.2522 20.1436 91.644 23.1247 91.644 23.1247L91.6132 39.3473L1.29932 39.1856L1.33773 20.652Z" fill="#006F3F"/>
</g>
</g>
<g id="Mask group_2">
<mask id="mask1_2035_3380" style="mask-type:luminance" maskUnits="userSpaceOnUse" x="4" y="6" width="88" height="38">
<g id="Group_3">
<path id="Vector_10" d="M4.64123 43.1758L91.3752 42.9909C91.0371 21.6226 71.7544 6.46297 48.0696 6.41675H47.9928C24.2082 6.41675 4.84097 21.6919 4.63354 43.1758H4.64123Z" fill="white"/>
</g>
</mask>
<g mask="url(#mask1_2035_3380)">
<path id="Vector_11" fill-rule="evenodd" clip-rule="evenodd" d="M1.28394 27.6387C1.28394 27.6387 26.1594 27.1534 34.8482 25.3663C42.3231 23.8334 48.8685 27.2304 52.6406 27.1919C56.4126 27.1611 58.4023 24.9966 66.1385 25.1121C75.2574 25.2431 91.6593 28.124 91.6593 28.124L91.6055 39.4398L1.30698 39.2858L1.28394 27.6387Z" fill="#FFEC00"/>
</g>
</g>
<g id="Mask group_3">
<mask id="mask2_2035_3380" style="mask-type:luminance" maskUnits="userSpaceOnUse" x="4" y="6" width="88" height="38">
<g id="Group_4">
<path id="Vector_12" d="M4.64123 43.1758L91.3752 42.9909C91.0371 21.6226 71.7544 6.46297 48.0696 6.41675H47.9928C24.2082 6.41675 4.84097 21.6919 4.63354 43.1758H4.64123Z" fill="white"/>
</g>
</mask>
<g mask="url(#mask2_2035_3380)">
<path id="Vector_13" fill-rule="evenodd" clip-rule="evenodd" d="M1.26855 33.5854C1.26855 33.5854 25.637 28.1163 34.7099 26.8452C42.2847 25.7822 49.3064 28.6555 53.0861 28.617C56.8505 28.5861 58.4638 26.9069 66.2076 27.0224C75.3266 27.1534 91.6593 32.376 91.6593 32.376L93.6567 44.4082L1.28392 44.5469L1.26855 33.5931V33.5854Z" fill="#81B82E"/>
</g>
</g>
<path id="Vector_14" fill-rule="evenodd" clip-rule="evenodd" d="M46.1491 65.4454C44.1901 64.9293 42.2311 64.4363 41.8777 64.367C36.253 63.3203 30.5436 62.7994 24.8229 62.811H24.5233C19.5835 62.811 17.056 62.8726 15.0279 62.9111H14.8128C13.5144 62.9342 12.3928 62.9573 10.9485 62.9573H10.9255C4.54911 62.9496 0.10102 59.1135 0.0779726 53.6443L0.00114893 42.2977C-0.0201402 40.9793 0.254674 39.673 0.805234 38.4756C1.35579 37.2782 2.16799 36.2203 3.18165 35.3803C4.54911 34.2326 6.97674 32.8845 10.8179 32.8845H11.4479C12.6002 32.8845 13.5836 32.8999 14.6975 32.9154H14.9203C16.3339 32.9385 18.4696 32.977 22.0649 32.9847H24.408C30.2098 32.9974 35.9998 32.461 41.701 31.3824C43.0328 31.1023 44.3526 30.7682 45.6575 30.381L47.9084 29.6724L50.1593 30.3656C51.3424 30.7354 53.3629 31.213 54.1311 31.367C55.9288 31.7214 62.4895 32.9 71.1552 32.9077H71.4625C76.3946 32.9077 78.9144 32.8614 80.9349 32.8152H80.981C82.3331 32.7921 83.5085 32.7767 85.0373 32.769H85.0987C91.4367 32.7767 95.8848 36.6205 95.9232 42.1128L95.9616 49.0995L96 53.4209C96 55.5855 95.3086 57.5652 94.0026 59.1597C92.8656 60.5309 90.2152 62.8341 85.1832 62.8418H84.7069C83.4624 62.8418 82.456 62.8264 81.2729 62.811H81.0655C79.4214 62.7802 77.3933 62.7493 73.9823 62.7416H71.5854C62.8275 62.7571 56.1977 63.9587 54.3308 64.3285L54.2617 64.3516C53.5088 64.4979 51.4961 64.9832 50.3283 65.3453L48.2464 66L46.1491 65.4454Z" fill="#E52329"/>
<path id="Vector_15" fill-rule="evenodd" clip-rule="evenodd" d="M47.2092 61.332C47.1784 61.3243 43.4832 60.3537 42.715 60.1996C40.8328 59.8222 34.0032 58.582 24.8381 58.5666H24.5308C19.5296 58.5743 16.9944 58.6205 14.9509 58.659H14.7204C13.4375 58.6898 12.3389 58.7053 10.9561 58.7053H10.9177C8.85112 58.7053 7.06881 58.1429 5.87804 57.1184C5.37319 56.6901 4.9709 56.1533 4.70094 55.548C4.43099 54.9426 4.30029 54.2841 4.31852 53.6212L4.2417 42.2669C4.2417 40.8033 4.80251 39.5477 5.89341 38.6388C6.71542 37.9455 8.25189 37.1213 10.8255 37.129H11.4401C12.5847 37.129 13.5835 37.1444 14.6436 37.1598H14.8587C18.0413 37.2262 21.2247 37.2493 24.4079 37.2291C30.4906 37.2426 36.561 36.6803 42.5383 35.5498C43.3987 35.3727 45.5498 34.872 46.9326 34.4329L47.916 34.1248L48.907 34.4329C50.3052 34.8565 52.487 35.3572 53.3013 35.5267C55.1988 35.9119 62.0899 37.1444 71.1397 37.1521L71.4701 37.1598C76.4329 37.1598 78.9758 37.1058 81.0193 37.0673H81.0654C82.4021 37.0365 83.5621 37.0134 85.0448 37.0134H85.0909C87.1421 37.0134 88.9321 37.5834 90.1075 38.6002C90.6166 39.036 91.0222 39.5803 91.2947 40.1933C91.5672 40.8064 91.6996 41.4727 91.6824 42.1437L91.7208 49.1226L91.7669 53.4595C91.7669 54.6149 91.4135 55.6317 90.7451 56.456C90.0845 57.2571 88.4865 58.5897 85.1677 58.6051H84.7068L81.4802 58.5666L81.1345 58.5589C79.4828 58.5358 77.4316 58.505 73.9976 58.4973H71.5853C65.5158 58.4862 59.4586 59.0458 53.4934 60.1688L53.3935 60.1919C51.9317 60.5 50.4835 60.8701 49.0529 61.3012L48.1464 61.5785L47.2092 61.332Z" fill="#FEFEFE"/>
<path id="Vector_16" fill-rule="evenodd" clip-rule="evenodd" d="M84.6609 40.5183H88.3254L88.3023 54.2914H84.73V53.4517C84.1615 54.1219 83.2627 54.561 81.972 54.5687C79.2217 54.5687 78.0387 51.6723 77.9926 48.8453V48.6604C77.9772 46.4111 79.0835 43.5225 82.0796 43.5071C83.2012 43.5071 84.3459 43.7921 84.6301 44.3698H84.6609V40.5183ZM61.4601 43.4686H61.7213L61.9825 43.484C63.6803 43.5918 65.4319 44.262 65.5164 46.6191V46.804L65.5087 54.2529L62.2591 54.2452L62.2514 53.4286L62.1362 53.5442L62.0209 53.6597C61.4683 54.2097 60.7252 54.5243 59.9467 54.5379C57.7956 54.5456 56.505 53.6751 56.4896 51.4566C56.4896 49.5848 57.7572 48.7837 59.0939 48.2984L59.4013 48.1905L59.7085 48.0904L60.7303 47.7977L60.9915 47.7207C61.6675 47.505 62.1439 47.2662 62.1285 46.8348C62.1054 46.1415 61.5293 46.0337 60.9608 46.0337H60.8686C59.8699 46.0337 59.1247 46.3187 58.2335 46.7655L57.2809 47.2662L57.5114 44.6317C58.6407 43.6457 59.9774 43.4763 61.4601 43.4763V43.4686ZM35.3708 43.4454H35.5629L35.9547 43.4609C36.8381 43.4994 37.7984 43.6303 38.3208 43.9616L38.4284 44.0386V47.3355C37.9137 46.8887 36.4233 46.7963 36.0084 46.8502C34.9022 47.0274 34.011 47.6513 34.011 49.215C34.011 50.5015 34.5872 51.5337 35.9316 51.5414C36.9457 51.5414 37.9751 51.3103 38.3516 51.11L38.4207 51.0715L38.4053 54.1296C38.0827 54.276 37.3529 54.3607 36.6384 54.4146L36.1698 54.4531L35.9393 54.4608L35.5321 54.4762L35.0712 54.4916C31.5373 54.4916 30.4003 51.8957 30.385 48.9917C30.3696 45.7101 31.9982 43.4377 35.3785 43.4454H35.3708ZM24.385 43.43C24.5387 43.43 24.6923 43.43 24.8613 43.4454L25.1072 43.4763L25.353 43.5148L25.6065 43.561L25.86 43.6303C27.65 44.1156 29.5322 45.5869 29.5322 48.8761C29.5322 53.1128 26.4362 54.4685 24.4081 54.4685L24.0547 54.4608L23.8165 54.4377C21.8191 54.2066 19.2302 52.7276 19.2302 48.8992C19.2378 45.0554 21.8114 43.6919 23.8012 43.4609L24.047 43.4377L24.3927 43.43H24.385ZM73.7289 43.4609C75.4343 43.4609 77.0476 44.5316 77.063 46.9735L77.0476 54.2683H73.3678L73.3908 48.5141C73.3908 47.1968 73.0528 46.7193 72.0541 46.7193C71.2014 46.7193 70.6406 47.1814 70.6482 48.4756L70.6405 54.2529H66.9607L66.9837 43.7998H70.6559V44.755L70.7327 44.6548C71.4088 43.6996 72.3076 43.4609 73.7135 43.4609H73.7289ZM51.6344 40.4567L55.1375 40.4644L55.1145 54.2297H51.4577L51.473 40.4644H51.6267L51.6344 40.4567ZM39.9111 40.4413L43.5218 40.449V44.832L43.6063 44.7088C44.2747 43.7536 45.1658 43.5071 46.564 43.5071C48.2772 43.5071 49.8597 44.5778 49.8751 47.012L49.8598 54.222H46.249V48.5603C46.249 47.2431 45.911 46.7732 44.9046 46.7732C44.0596 46.7732 43.5372 47.2585 43.5448 48.5449L43.5295 54.2143H39.888L39.9111 40.4413ZM8.02926 40.3873H11.7014L11.6938 45.1401H14.4133L14.421 40.395L18.1008 40.4027L18.0701 54.1681L14.4056 54.1604V48.8222H11.6938L11.6861 54.1527H7.99854L8.02926 40.3873ZM62.5664 49.3306C62.5664 49.4307 62.4435 49.5078 62.2437 49.5694L62.0517 49.631L61.4371 49.7928L61.0222 49.9237L60.7303 50.0239C60.3154 50.1933 59.7623 50.4861 59.7546 51.1793C59.7623 51.7956 60.4 52.0729 60.7918 52.0729C61.1528 52.0729 61.4601 51.9882 61.7136 51.8341L61.8212 51.7571C62.213 51.526 62.4435 51.1023 62.528 50.4861L62.5433 50.332C62.5741 50.0239 62.5894 49.7003 62.5664 49.3306ZM82.9093 46.4805C82.2179 46.4805 81.0348 46.958 81.0348 48.9994C81.0502 51.0176 82.2332 51.4952 82.9247 51.4952C83.6161 51.4952 84.6916 51.0176 84.6916 48.9763C84.6686 46.9426 83.6007 46.4805 82.9093 46.4805ZM24.3697 46.4805C23.5861 46.4805 22.3876 46.9272 22.3953 48.8684C22.3953 50.8096 23.6091 51.2564 24.3927 51.2564C25.1763 51.2564 26.3901 50.8019 26.3748 48.8684C26.3594 46.9272 25.1609 46.4805 24.3773 46.4805H24.3697Z" fill="#001689"/>
</g>
</g>
<defs>
<radialGradient id="paint0_radial_2035_3380" cx="0" cy="0" r="1" gradientUnits="userSpaceOnUse" gradientTransform="translate(1345.89 -3866.29) rotate(-90) scale(3712.68 1561.46)">
<stop stop-color="#F3FBFF"/>
<stop offset="0.5346" stop-color="#DDF1FB"/>
<stop offset="0.6683" stop-color="#C6E8F9"/>
<stop offset="1" stop-color="#80CFF3"/>
</radialGradient>
</defs>
</svg>
