<svg width="96" height="66" viewBox="0 0 96 66" fill="none" xmlns="http://www.w3.org/2000/svg">
<path fill-rule="evenodd" clip-rule="evenodd" d="M3.71875 39.3628C3.74948 17.5785 23.6007 -0.0461277 48.046 9.06941e-05C72.499 0.038606 92.2964 17.7326 92.2504 39.5168L92.2196 41.7045L92.258 48.2906L92.2964 52.3733C92.2964 54.4069 91.6665 56.271 90.4527 57.7808C89.4079 59.0749 86.9649 61.2472 82.3094 61.2472H81.8715C80.7345 61.2472 79.7972 61.2318 78.7063 61.2164H78.5066C77.0085 61.1933 75.1264 61.1625 71.9843 61.1548H69.7717C64.4277 61.1473 59.0951 61.6502 53.8462 62.6569L53.7847 62.6646C53.0933 62.8186 51.2419 63.2577 50.1587 63.612L48.2381 64.2283L46.3021 63.7045C44.5044 63.2115 42.6914 62.7493 42.3687 62.6877C40.717 62.341 34.7401 61.2318 26.6352 61.2241H26.3587C21.7954 61.2318 19.4599 61.278 17.5931 61.3088H17.401C16.1949 61.3319 15.1655 61.355 13.8364 61.355H13.8057C7.92869 61.355 3.8263 57.7346 3.80326 52.5735L3.72643 41.8817L3.71875 39.3628Z" fill="#001689"/>
<path fill-rule="evenodd" clip-rule="evenodd" d="M3.71094 43.4446C3.76471 21.2751 23.6467 5.39138 48.0766 5.4376C72.4989 5.48382 92.3347 21.4292 92.2963 43.6294V43.9838L3.71862 44.1609V43.46L3.71094 43.4446Z" fill="#FEFEFE"/>
<path fill-rule="evenodd" clip-rule="evenodd" d="M47.9861 6.41786C31.6687 6.41786 17.4256 13.6125 10.0352 25.0747C13.8149 34.4339 29.7481 41.4822 48.8311 41.513C66.8847 41.5439 82.1265 35.2967 86.9664 26.7232C79.8986 14.3289 65.1331 6.44867 48.0706 6.41016H47.9937" fill="url(#paint0_radial_3011_45103)"/>
<path fill-rule="evenodd" clip-rule="evenodd" d="M67.8143 22.617C65.8937 21.3074 61.5378 18.103 59.2792 17.4713C55.9066 16.5161 52.1346 19.451 50.0757 19.8593C48.0245 20.2444 46.5264 17.7948 44.6212 17.7563C43.0847 17.7255 35.6482 20.7143 33.5586 21.5L38.1296 23.4566C38.7596 23.8649 55.753 27.5777 68.8283 23.8418L67.8143 22.6093V22.617Z" fill="#FEFEFE"/>
<path fill-rule="evenodd" clip-rule="evenodd" d="M33.5586 21.5017C35.6482 20.716 43.0847 17.7272 44.6212 17.758C45.4509 17.7658 46.2038 18.2433 46.9566 18.7517C45.8811 18.4667 43.9912 17.2882 43.1462 19.2756C42.716 20.2924 41.9938 22.4877 41.1027 22.8036C38.8748 23.959 33.5586 21.5017 33.5586 21.5017Z" fill="#3EBFEF"/>
<path fill-rule="evenodd" clip-rule="evenodd" d="M53.1946 20.1052C54.9539 19.1423 55.4686 18.3489 55.7451 17.6094C53.4635 18.2333 50.9667 19.8356 49.7452 19.8895C49.3227 19.9049 49.0692 19.8279 48.7542 19.7431C48.662 20.2053 48.2164 21.1143 47.9475 21.6535C47.4251 22.7319 46.2574 23.1941 45.4431 23.8335L45.4277 23.8566C46.849 24.3958 48.0474 25.8594 49.5071 25.6052L50.1754 25.297C50.4443 24.3573 51.1511 21.2144 53.1946 20.0975" fill="#EBF6FC"/>
<path fill-rule="evenodd" clip-rule="evenodd" d="M56.2125 17.4843C54.5378 17.9156 52.2945 18.971 51.0039 19.5487C50.4815 19.7875 51.1345 21.5823 51.196 22.3757C51.665 21.4811 52.4046 20.7584 53.3086 20.3113C54.8528 19.4717 55.6671 18.9478 55.8976 18.2931L56.1588 17.6075L56.2125 17.4766V17.4843Z" fill="#93D5F5"/>
<mask id="mask0_3011_45103" style="mask-type:luminance" maskUnits="userSpaceOnUse" x="4" y="6" width="88" height="38">
<path d="M4.64049 43.177L91.3744 42.9922C91.0364 21.6238 71.7537 6.46419 48.0689 6.41797H47.9921C24.2075 6.41797 4.84024 21.6932 4.63281 43.177H4.64049Z" fill="white"/>
</mask>
<g mask="url(#mask0_3011_45103)">
<path fill-rule="evenodd" clip-rule="evenodd" d="M1.33724 20.6528C1.33724 20.6528 5.4473 20.4294 24.4919 17.2173C33.2191 15.746 45.5723 25.8293 53.0396 24.9203C60.4991 23.996 71.0547 20.545 78.7755 20.3293C85.2517 20.1444 91.6435 23.1255 91.6435 23.1255L91.6127 39.3482L1.29883 39.1864L1.33724 20.6528Z" fill="#006F3F"/>
</g>
<mask id="mask1_3011_45103" style="mask-type:luminance" maskUnits="userSpaceOnUse" x="4" y="6" width="88" height="38">
<path d="M4.64049 43.177L91.3744 42.9922C91.0364 21.6238 71.7537 6.46419 48.0689 6.41797H47.9921C24.2075 6.41797 4.84024 21.6932 4.63281 43.177H4.64049Z" fill="white"/>
</mask>
<g mask="url(#mask1_3011_45103)">
<path fill-rule="evenodd" clip-rule="evenodd" d="M1.2832 27.6387C1.2832 27.6387 26.1587 27.1534 34.8475 25.3663C42.3224 23.8334 48.8678 27.2304 52.6398 27.1919C56.4119 27.1611 58.4016 24.9966 66.1377 25.1121C75.2567 25.2431 91.6586 28.124 91.6586 28.124L91.6048 39.4398L1.30625 39.2858L1.2832 27.6387Z" fill="#FFEC00"/>
</g>
<mask id="mask2_3011_45103" style="mask-type:luminance" maskUnits="userSpaceOnUse" x="4" y="6" width="88" height="38">
<path d="M4.64049 43.177L91.3744 42.9922C91.0364 21.6238 71.7537 6.46419 48.0689 6.41797H47.9921C24.2075 6.41797 4.84024 21.6932 4.63281 43.177H4.64049Z" fill="white"/>
</mask>
<g mask="url(#mask2_3011_45103)">
<path fill-rule="evenodd" clip-rule="evenodd" d="M1.26758 33.5857C1.26758 33.5857 25.636 28.1165 34.7089 26.8455C42.2837 25.7825 49.3054 28.6557 53.0851 28.6172C56.8495 28.5864 58.4628 26.9071 66.2066 27.0227C75.3256 27.1536 91.6583 32.3763 91.6583 32.3763L93.6557 44.4085L1.28294 44.5471L1.26758 33.5934V33.5857Z" fill="#81B82E"/>
</g>
<path fill-rule="evenodd" clip-rule="evenodd" d="M46.1491 65.4449C44.1901 64.9288 42.2311 64.4358 41.8777 64.3665C36.253 63.3198 30.5436 62.7989 24.8229 62.8105H24.5233C19.5835 62.8105 17.056 62.8721 15.0279 62.9106H14.8128C13.5144 62.9337 12.3928 62.9568 10.9485 62.9568H10.9255C4.54911 62.9491 0.10102 59.113 0.0779726 53.6438L0.00114893 42.2972C-0.0201402 40.9788 0.254674 39.6725 0.805234 38.4751C1.35579 37.2777 2.16799 36.2198 3.18165 35.3799C4.54911 34.2321 6.97674 32.8841 10.8179 32.8841H11.4479C12.6002 32.8841 13.5836 32.8995 14.6975 32.9149H14.9203C16.3339 32.938 18.4696 32.9765 22.0649 32.9842H24.408C30.2098 32.9969 35.9998 32.4605 41.701 31.382C43.0328 31.1018 44.3526 30.7677 45.6575 30.3806L47.9084 29.6719L50.1593 30.3651C51.3424 30.7349 53.3629 31.2125 54.1311 31.3666C55.9288 31.7209 62.4895 32.8995 71.1552 32.9072H71.4625C76.3946 32.9072 78.9144 32.8609 80.9349 32.8147H80.981C82.3331 32.7916 83.5085 32.7762 85.0373 32.7685H85.0987C91.4367 32.7762 95.8848 36.62 95.9232 42.1123L95.9616 49.099L96 53.4204C96 55.585 95.3086 57.5647 94.0026 59.1592C92.8656 60.5304 90.2152 62.8336 85.1832 62.8413H84.7069C83.4624 62.8413 82.456 62.8259 81.2729 62.8105H81.0655C79.4214 62.7797 77.3933 62.7489 73.9823 62.7412H71.5854C62.8275 62.7566 56.1977 63.9582 54.3308 64.328L54.2617 64.3511C53.5088 64.4975 51.4961 64.9828 50.3283 65.3448L48.2464 65.9996L46.1491 65.4449Z" fill="#E52329"/>
<path fill-rule="evenodd" clip-rule="evenodd" d="M47.2097 61.3322C47.1789 61.3245 43.4837 60.354 42.7155 60.1999C40.8333 59.8224 34.0037 58.5822 24.8386 58.5668H24.5313C19.5301 58.5745 16.9949 58.6208 14.9514 58.6593H14.7209C13.438 58.6901 12.3394 58.7055 10.9566 58.7055H10.9182C8.85161 58.7055 7.0693 58.1432 5.87853 57.1187C5.37368 56.6903 4.97138 56.1536 4.70143 55.5482C4.43148 54.9428 4.30078 54.2843 4.31901 53.6215L4.24219 42.2671C4.24219 40.8036 4.803 39.548 5.8939 38.639C6.71591 37.9457 8.25238 37.1215 10.826 37.1292H11.4406C12.5852 37.1292 13.5839 37.1446 14.6441 37.16H14.8592C18.0418 37.2264 21.2252 37.2495 24.4084 37.2293C30.4911 37.2428 36.5615 36.6806 42.5388 35.5501C43.3992 35.3729 45.5503 34.8722 46.9331 34.4331L47.9164 34.125L48.9075 34.4331C50.3057 34.8568 52.4874 35.3575 53.3018 35.527C55.1993 35.9121 62.0904 37.1446 71.1402 37.1523L71.4706 37.16C76.4334 37.16 78.9762 37.1061 81.0198 37.0676H81.0659C82.4026 37.0368 83.5626 37.0137 85.0453 37.0137H85.0914C87.1426 37.0137 88.9326 37.5837 90.108 38.6005C90.6171 39.0362 91.0227 39.5805 91.2952 40.1936C91.5677 40.8066 91.7001 41.4729 91.6829 42.1439L91.7213 49.1229L91.7674 53.4597C91.7674 54.6152 91.414 55.632 90.7456 56.4562C90.085 57.2573 88.487 58.59 85.1682 58.6054H84.7073L81.4807 58.5668L81.135 58.5591C79.4833 58.536 77.4321 58.5052 73.9981 58.4975H71.5858C65.5163 58.4865 59.4591 59.0461 53.4938 60.1691L53.394 60.1922C51.9321 60.5003 50.484 60.8704 49.0534 61.3014L48.1469 61.5787L47.2097 61.3322Z" fill="#FEFEFE"/>
<path fill-rule="evenodd" clip-rule="evenodd" d="M84.6604 40.5177H88.3249L88.3018 54.2908H84.7295V53.4511C84.161 54.1213 83.2622 54.5604 81.9715 54.5681C79.2213 54.5681 78.0382 51.6717 77.9921 48.8447V48.6598C77.9767 46.4105 79.083 43.5219 82.0791 43.5065C83.2007 43.5065 84.3454 43.7915 84.6297 44.3692H84.6604V40.5177ZM61.4596 43.4679H61.7208L61.982 43.4834C63.6798 43.5912 65.4314 44.2614 65.5159 46.6185V46.8034L65.5082 54.2522L62.2586 54.2445L62.2509 53.428L62.1357 53.5436L62.0205 53.6591C61.4678 54.2091 60.7247 54.5237 59.9462 54.5373C57.7951 54.545 56.5045 53.6745 56.4891 51.456C56.4891 49.5842 57.7567 48.7831 59.0935 48.2978L59.4008 48.1899L59.7081 48.0898L60.7298 47.7971L60.991 47.72C61.6671 47.5044 62.1434 47.2656 62.128 46.8342C62.105 46.1409 61.5288 46.0331 60.9603 46.0331H60.8681C59.8694 46.0331 59.1242 46.3181 58.233 46.7649L57.2804 47.2656L57.5109 44.6311C58.6402 43.6451 59.9769 43.4756 61.4596 43.4756V43.4679ZM35.3703 43.4448H35.5624L35.9542 43.4602C36.8376 43.4988 37.7979 43.6297 38.3203 43.9609L38.4279 44.038V47.3349C37.9132 46.8881 36.4228 46.7957 36.008 46.8496C34.9017 47.0268 34.0105 47.6507 34.0105 49.2144C34.0105 50.5008 34.5867 51.5331 35.9311 51.5408C36.9452 51.5408 37.9746 51.3097 38.3511 51.1094L38.4202 51.0709L38.4049 54.129C38.0822 54.2754 37.3524 54.3601 36.6379 54.414L36.1693 54.4525L35.9388 54.4602L35.5316 54.4756L35.0707 54.491C31.5368 54.491 30.3998 51.8951 30.3845 48.991C30.3691 45.7095 31.9978 43.4371 35.378 43.4448H35.3703ZM24.3845 43.4294C24.5382 43.4294 24.6918 43.4294 24.8608 43.4448L25.1067 43.4756L25.3525 43.5142L25.606 43.5604L25.8595 43.6297C27.6495 44.115 29.5317 45.5863 29.5317 48.8755C29.5317 53.1122 26.4357 54.4679 24.4076 54.4679L24.0542 54.4602L23.816 54.4371C21.8186 54.206 19.2297 52.727 19.2297 48.8986C19.2373 45.0548 21.8109 43.6913 23.8007 43.4602L24.0465 43.4371L24.3922 43.4294H24.3845ZM73.7284 43.4602C75.4339 43.4602 77.0472 44.531 77.0625 46.9728L77.0472 54.2676H73.3673L73.3903 48.5135C73.3903 47.1962 73.0523 46.7186 72.0536 46.7186C71.2009 46.7186 70.6401 47.1808 70.6477 48.4749L70.6401 54.2522H66.9602L66.9833 43.7992H70.6554V44.7544L70.7323 44.6542C71.4083 43.699 72.3071 43.4602 73.713 43.4602H73.7284ZM51.6339 40.456L55.137 40.4637L55.114 54.2291H51.4572L51.4726 40.4637H51.6262L51.6339 40.456ZM39.9106 40.4406L43.5213 40.4483V44.8314L43.6058 44.7081C44.2742 43.753 45.1653 43.5065 46.5635 43.5065C48.2767 43.5065 49.8593 44.5772 49.8746 47.0114L49.8593 54.2214H46.2485V48.5597C46.2485 47.2425 45.9105 46.7726 44.9041 46.7726C44.0591 46.7726 43.5367 47.2579 43.5444 48.5443L43.529 54.2137H39.8875L39.9106 40.4406ZM8.02878 40.3867H11.7009L11.6933 45.1395H14.4128L14.4205 40.3944L18.1004 40.4021L18.0696 54.1675L14.4051 54.1598V48.8216H11.6933L11.6856 54.1521H7.99805L8.02878 40.3867ZM62.5659 49.33C62.5659 49.4301 62.443 49.5072 62.2432 49.5688L62.0512 49.6304L61.4366 49.7922L61.0217 49.9231L60.7298 50.0233C60.315 50.1927 59.7618 50.4854 59.7541 51.1787C59.7618 51.795 60.3995 52.0723 60.7913 52.0723C61.1523 52.0723 61.4596 51.9875 61.7132 51.8335L61.8207 51.7565C62.2125 51.5254 62.443 51.1017 62.5275 50.4854L62.5428 50.3314C62.5736 50.0233 62.5889 49.6997 62.5659 49.33ZM82.9088 46.4798C82.2174 46.4798 81.0343 46.9574 81.0343 48.9988C81.0497 51.017 82.2328 51.4945 82.9242 51.4945C83.6156 51.4945 84.6911 51.017 84.6911 48.9756C84.6681 46.942 83.6002 46.4798 82.9088 46.4798ZM24.3692 46.4798C23.5856 46.4798 22.3871 46.9266 22.3948 48.8678C22.3948 50.809 23.6086 51.2558 24.3922 51.2558C25.1758 51.2558 26.3896 50.8013 26.3743 48.8678C26.3589 46.9266 25.1605 46.4798 24.3769 46.4798H24.3692Z" fill="#001689"/>
<defs>
<radialGradient id="paint0_radial_3011_45103" cx="0" cy="0" r="1" gradientUnits="userSpaceOnUse" gradientTransform="translate(1345.89 -3866.29) rotate(-90) scale(3712.68 1561.46)">
<stop stop-color="#F3FBFF"/>
<stop offset="0.5346" stop-color="#DDF1FB"/>
<stop offset="0.6683" stop-color="#C6E8F9"/>
<stop offset="1" stop-color="#80CFF3"/>
</radialGradient>
</defs>
</svg>
