<svg width="43" height="53" viewBox="0 0 43 53" fill="none" xmlns="http://www.w3.org/2000/svg">
<path d="M42.4998 31.6061C42.4998 43.1451 33.1387 52.5 21.5905 52.5C10.0422 52.5 0.681152 43.1451 0.681152 31.6061C0.681152 20.0671 10.0422 10.7123 21.5905 10.7123C33.1387 10.7123 42.4998 20.0671 42.4998 31.6061Z" fill="#98CBD3" stroke="black"/>
<mask id="mask0_2077_3142" style="mask-type:alpha" maskUnits="userSpaceOnUse" x="0" y="0" width="43" height="53">
<path d="M42.9998 31.6062C42.9998 43.4216 33.4145 53 21.5905 53C9.76642 53 0.181152 43.4216 0.181152 31.6062C0.181152 19.7907 -3.71419 3.52293 24.6217 0.308496C35.4143 -0.915826 40.6516 1.61881 42.9998 5.87945C42.9998 5.87945 42.9998 24.291 42.9998 31.6062Z" fill="#76B943"/>
</mask>
<g mask="url(#mask0_2077_3142)">
<path d="M3.12889 27.5673C3.35718 28.1923 3.75668 28.7037 4.09911 29.2719C4.84104 30.3514 5.64006 31.3742 6.49613 32.3401C6.55321 32.3969 6.61027 32.4537 6.72442 32.4537C6.78149 32.4537 6.83856 32.3969 6.89563 32.3401C7.75171 31.5446 9.00729 31.3741 10.0917 31.6582C11.176 31.9423 12.1462 32.6242 13.0594 33.306C13.2306 33.4196 13.4018 33.5901 13.573 33.7037C13.8584 34.0446 14.1438 34.4424 14.4862 34.7833C15.3423 34.1015 16.2554 33.5333 17.2827 33.0787C16.6549 32.3401 16.3125 31.3742 15.97 30.4651C15.0569 27.8514 14.372 25.2377 13.8013 22.5104C13.7442 22.1127 13.6301 21.715 13.7443 21.3172V21.2604C13.8584 20.9763 14.0867 20.6922 14.315 20.4649C15.5135 19.1013 16.8261 17.6808 18.6524 17.1694C20.3075 16.7717 22.0767 17.2831 23.7318 17.5672C24.9303 17.7945 26.1859 17.9081 27.3844 17.9081C27.6127 17.9081 27.841 17.9081 28.0693 17.8513C28.6971 18.0217 29.3249 18.249 29.8956 18.4195C31.836 18.9308 34.1189 19.2717 35.774 18.1354C36.4018 17.6808 36.9154 17.1126 37.3149 16.4876C37.6003 16.0331 37.8856 15.5785 38.0568 15.124C38.1139 15.0103 38.171 14.8967 38.2281 14.7262C38.3993 14.2717 38.5705 13.874 38.6846 13.4194C39.2554 11.4307 39.1983 9.21481 38.5705 7.22616C37.4291 8.30571 36.0023 9.04436 34.4613 9.32845C34.5184 9.21481 34.6325 9.158 34.6896 9.04436C35.3174 8.2489 35.831 7.28298 36.0593 6.26024C36.4588 4.72613 36.3447 3.07838 35.774 1.65791C34.5184 2.96475 32.6921 3.53293 30.9229 3.70339C29.1536 3.87385 27.3273 3.76021 25.5581 3.93067C23.1611 4.15794 20.8782 4.89659 18.5954 5.63523C16.712 6.26024 14.8286 6.94206 13.0023 7.79434C11.4043 8.58981 9.86337 9.55573 8.49365 10.6921C7.46635 11.5444 6.49613 12.5103 5.58298 13.533C4.61276 14.6694 3.64254 16.0899 3.81375 17.5672C3.98497 18.9876 5.12641 20.124 6.1537 21.1468L6.32492 21.4309C6.38199 21.4309 6.38199 21.4309 6.43906 21.4309C6.43906 21.4877 6.43906 21.4877 6.49613 21.5445C6.43906 21.5445 6.32491 21.5445 6.26784 21.5445C4.95519 21.715 3.81375 22.5672 3.24303 23.7604C2.67232 24.9536 2.67232 26.3173 3.12889 27.5673Z" fill="#ED6C2E"/>
<path d="M6.26826 37.1696C6.43948 37.7378 6.61069 38.306 6.95312 38.8174C7.52384 39.6697 8.55113 40.181 9.52135 40.4083C10.5486 40.6356 11.5759 40.6924 12.6032 40.806C12.8315 40.806 13.0598 40.8629 13.231 40.9765C13.4593 41.1469 13.5164 41.431 13.6305 41.6583C14.7149 45.6356 14.4295 49.8402 15.3427 53.8175C15.4568 54.2153 15.571 54.613 15.7993 54.9539C15.8563 55.1244 15.8563 55.2948 15.9134 55.5221C16.0275 56.1471 16.1988 56.7721 16.3129 57.3971C16.3129 57.5108 16.37 57.5676 16.427 57.6812C16.4841 57.738 16.5983 57.7949 16.7124 57.7949C19.1094 58.4199 21.6777 58.4767 24.0747 57.9653C25.4444 57.6812 26.757 57.2267 28.0126 56.6585C28.5263 56.4312 28.9829 56.2039 29.4394 55.9198C29.6677 55.7494 29.9531 55.4653 29.9531 55.1244C29.9531 54.9539 29.896 54.8403 29.8389 54.7266C29.8389 54.6698 29.7819 54.613 29.7248 54.5562C29.8389 54.0448 29.8389 53.4766 29.8389 52.9084C29.8389 52.2266 29.7819 51.5448 29.7248 50.9198C29.6677 49.6698 29.6106 48.4766 29.5536 47.2266C30.7521 47.6243 31.9506 46.9425 32.9779 46.2038C33.9481 45.4652 34.9183 44.6129 35.6032 43.5902C36.9729 41.6015 37.3153 39.0447 37.4866 36.6014C37.829 30.5218 37.087 24.3854 35.3178 18.5899L35.3749 18.7603C33.2632 18.7603 31.0945 18.6467 28.9829 18.4194C27.2707 18.249 25.5585 17.9649 23.8464 17.5671C22.2484 17.2262 20.6504 16.8285 19.0524 17.1694C17.169 17.624 15.7422 19.0444 14.4295 20.4081C14.2012 20.6354 13.973 20.8626 13.8588 21.1467C13.6876 21.5445 13.8017 21.9422 13.8588 22.3399C14.4295 25.6922 15.0003 29.1014 16.7124 31.9991C16.8836 32.2832 17.0548 32.5673 17.1119 32.9082C17.1119 33.0219 17.1119 33.0787 17.169 33.1923C16.5412 33.7037 15.9134 34.1582 15.2285 34.6696C15.1144 34.7832 14.9432 34.8401 14.772 34.8401C14.6578 34.8401 14.5437 34.7264 14.4295 34.6696C13.6876 34.0446 13.1169 33.1355 12.3179 32.6241C11.8613 32.34 11.2906 32.1128 10.7199 31.9991C9.69257 31.7718 8.60821 31.6582 7.69506 32.1696C6.83898 32.6241 6.32534 33.5332 6.15412 34.4423C5.92583 35.2946 6.03997 36.2605 6.26826 37.1696Z" fill="white"/>
<path d="M20.4221 45.4652C21.1069 45.7493 21.6206 46.3175 22.0201 46.8857C22.4767 47.4539 22.9332 47.9652 23.504 48.4766C24.9307 49.6698 26.6429 50.2948 28.4692 50.6925C28.8116 50.7493 29.3253 50.9766 29.7248 50.863C29.6677 49.613 29.6106 48.4198 29.5536 47.1698C30.7521 47.5675 31.9506 46.8857 32.9779 46.147C33.9481 45.4084 34.9183 44.5561 35.6032 43.5334C36.9729 41.5447 37.3153 38.9879 37.4866 36.5446C37.829 30.465 37.087 24.3286 35.3178 18.5331L35.3749 18.7035C33.2632 18.7035 31.0945 18.5899 28.9829 18.3626C28.5833 20.6354 29.2111 22.965 29.3824 25.2377C29.4965 26.9423 29.3824 28.6468 29.5536 30.2946C29.7248 31.9991 30.2955 33.7037 31.6082 34.8401C31.2086 35.1242 30.6379 35.1242 30.2384 35.4083C29.6677 35.806 29.6106 36.6583 29.6677 37.3401C29.7248 38.0219 29.8389 38.8174 29.4394 39.3856C29.2682 39.6697 28.9258 39.897 28.8687 40.181C28.8116 40.4083 28.8687 40.5788 28.9258 40.8061C29.3824 42.5106 29.5536 44.3856 28.6404 45.8629C28.4121 46.2038 28.1268 46.5448 27.7843 46.7152C27.4419 46.8857 27.0995 46.9425 26.7571 46.9425C24.4171 47.1129 22.5337 46.147 20.4221 45.4652Z" fill="#F4C6CC"/>
<path d="M13.7443 21.2604C13.8584 20.9763 14.0867 20.6922 14.315 20.4649C15.5135 19.1013 16.8261 17.6808 18.6524 17.1694C20.3075 16.7717 22.0767 17.2831 23.7318 17.5672C24.9303 17.7945 26.1859 17.9081 27.3844 17.9081C27.6127 17.9081 27.841 17.9081 28.0693 17.8513C28.6971 18.0217 29.3249 18.249 29.8956 18.4195C31.836 18.9308 34.1189 19.2717 35.774 18.1354C36.4018 17.6808 36.9154 17.1126 37.3149 16.4876C37.6003 16.0331 37.8856 15.5785 38.0568 15.124C38.171 15.124 38.285 15.0672 38.3992 15.0103C38.3992 14.8399 38.3992 14.6126 38.3992 14.4421C38.3421 14.5558 38.285 14.6694 38.1709 14.7831C38.0567 14.9535 37.9426 15.0672 37.8284 15.1808C36.9153 16.2035 35.6026 16.7717 34.29 16.999C32.6349 17.2263 30.9227 16.999 29.3247 16.6581C27.3272 16.2603 25.3297 15.8058 23.2751 15.6922C21.2205 15.5785 19.1089 15.8058 17.3397 16.7149C15.6275 17.624 14.1438 19.2717 13.7443 21.2604Z" fill="white"/>
<path d="M19.8508 11.1466C23.4463 8.41932 28.3545 7.4534 32.749 8.64659C33.4339 8.81705 34.1187 9.04433 34.8036 9.10114C35.4314 8.30568 35.945 7.33976 36.1733 6.31702C35.6597 6.60112 35.0319 6.77157 34.4612 6.82839C32.9773 7.05567 31.4934 6.77157 30.0096 6.71475C28.0691 6.60112 26.1287 6.71475 24.3024 7.39658C22.4761 8.07841 20.8781 8.81705 20.1361 10.5784L19.8508 11.1466Z" fill="white"/>
<path d="M23.7891 14.8398L26.5286 13.5898C27.3847 13.1353 28.5832 13.3057 29.4963 13.4194C30.4095 13.533 31.3226 13.8739 32.2358 14.158C33.7767 14.7262 35.4318 15.2376 37.0869 15.2376C37.3722 15.2376 37.7147 15.2376 38 15.1808C38.0571 15.1808 38.1142 15.1808 38.1712 15.1239C38.2854 15.1239 38.3995 15.0671 38.5137 15.0103C38.5137 14.8398 38.5137 14.6126 38.5137 14.4421C38.4566 14.5558 38.3995 14.6694 38.2854 14.783C38.4566 14.3285 38.6278 13.9307 38.742 13.4762C37.6005 14.0444 36.1167 13.9876 34.8611 13.7035C33.3772 13.3626 32.0075 12.6807 30.5236 12.4535C28.0125 11.9989 25.273 12.8512 23.7891 14.8398Z" fill="white"/>
<path d="M3.92801 17.5671C4.09923 18.9876 5.24066 20.124 6.26795 21.1467L6.43906 21.4309C6.49613 21.4309 6.49624 21.4308 6.55331 21.4308L8.77911 20.8626C7.92304 20.9195 7.06696 20.5785 6.49624 19.9535C6.15381 19.5558 5.98259 19.1581 5.81137 18.6467C5.3548 17.2262 5.58309 15.6353 6.21088 14.2717C6.7816 12.908 7.75182 11.7148 8.83618 10.6353C8.77911 10.6353 8.66497 10.6353 8.6079 10.6353C7.5806 11.4875 6.61038 12.4535 5.69723 13.4762C4.66994 14.6694 3.75679 16.0899 3.92801 17.5671Z" fill="white"/>
<path d="M34.9755 18.3626C35.6603 20.0104 36.0028 21.7718 36.174 23.5331C36.3452 25.2945 36.5164 27.0559 36.6306 28.8173C36.8588 32.3401 36.9159 35.8628 36.1169 39.2719C35.7745 40.9765 35.2038 42.6243 34.2335 43.9879C33.3204 45.3516 31.8936 46.4311 30.2385 46.7152C29.4395 46.8857 28.5264 46.8857 27.6703 46.8289C26.8142 46.8289 25.9011 46.7152 25.045 46.6016C23.2758 46.3743 21.5636 45.8629 19.9085 45.1811C21.4495 46.0902 23.1616 46.7152 24.9308 47.113C25.7869 47.3402 26.7001 47.4539 27.6132 47.5675C28.5264 47.6243 29.4395 47.6811 30.3527 47.5675C31.3229 47.4539 32.236 47.0561 33.035 46.5448C33.834 46.0334 34.5189 45.3516 35.0896 44.5561C36.174 43.022 36.8018 41.2038 37.2013 39.4424C37.6008 37.681 37.772 35.8628 37.772 34.0446C37.772 32.2264 37.6579 30.465 37.4296 28.6468C37.2013 26.8855 36.9159 25.1241 36.6306 23.3627C36.3452 21.7149 35.8886 19.9536 34.9755 18.3626Z" fill="black"/>
<path d="M12.4892 32.7946C11.8043 32.3401 11.1194 31.8855 10.3204 31.6014C9.52141 31.3173 8.55119 31.2037 7.69511 31.6014C6.83904 31.9991 6.21124 32.7378 5.81174 33.5333C5.41224 34.3855 5.2981 35.2946 5.41224 36.2037C5.58345 38.0219 6.66783 39.6697 8.20876 40.6356C9.7497 41.5447 11.6331 41.8288 13.4023 41.3743L12.7745 41.0333C13.2311 42.5674 13.5735 44.1016 13.9159 45.6925C14.2584 47.2834 14.4867 48.8743 14.7149 50.4653C14.8291 48.8175 14.772 47.2266 14.6008 45.5788C14.4296 43.9311 14.1442 42.3402 13.7447 40.7492C13.6877 40.4652 13.4023 40.3515 13.174 40.3515C11.6901 40.6356 10.0921 40.4083 8.77948 39.6129C7.46683 38.8742 6.61075 37.5106 6.38246 36.0333C6.26832 35.2946 6.32539 34.556 6.61075 33.8742C6.89611 33.1923 7.35268 32.5673 7.98047 32.1696C8.60826 31.8287 9.40727 31.7719 10.2063 31.9423C11.0053 32.1128 11.7472 32.4537 12.4892 32.7946Z" fill="black"/>
<path d="M13.4016 37.681C12.945 37.8515 12.4884 38.0219 12.0319 38.1356C11.5753 38.2492 11.1187 38.3629 10.6621 38.4765L10.9475 38.6469C10.8334 38.1924 10.548 37.9651 10.4909 37.681C10.4339 37.4538 10.4909 37.2265 10.6621 36.9992C10.8334 36.7719 11.1187 36.5447 11.347 36.2606C11.5753 35.9765 11.8036 35.5787 11.7465 35.1242C11.6894 34.8969 11.5753 34.6696 11.347 34.556C11.1758 34.4424 10.9475 34.3855 10.7192 34.3855C10.3197 34.3855 9.97729 34.4992 9.63486 34.6128C9.3495 34.7265 9.00706 34.7833 8.7217 34.6696C8.43634 34.556 8.26513 34.2151 8.15098 33.931C8.20806 34.2719 8.26513 34.6696 8.60756 34.8969C8.94999 35.1242 9.34949 35.0674 9.69192 35.0105C10.0344 34.9537 10.3197 34.8401 10.6621 34.8969C10.9475 34.8969 11.1187 35.0674 11.1758 35.2946C11.1758 35.5219 11.1187 35.806 10.8904 35.9765C10.6621 36.2037 10.4339 36.431 10.2056 36.7719C10.0914 36.9424 9.97729 37.1128 9.92021 37.3401C9.86314 37.5674 9.92021 37.7947 9.97728 38.0219C10.1485 38.4197 10.4339 38.6469 10.4909 38.8742C10.548 38.9879 10.6621 39.0447 10.7763 39.0447C11.2329 38.931 11.6894 38.7606 12.146 38.5333C12.6026 38.1924 13.0021 37.9651 13.4016 37.681Z" fill="black"/>
<path d="M13.5159 20.9763C13.4588 22.0558 13.5159 23.1354 13.63 24.215C13.7442 25.2945 13.9725 26.3741 14.2578 27.3968C14.5432 28.4764 14.8856 29.4991 15.2851 30.465C15.6846 31.4878 16.1412 32.4537 16.7119 33.4196L16.8831 32.7946C16.4836 33.0787 16.0841 33.3628 15.6846 33.5901L15.0568 33.9878C14.8856 34.1014 14.6003 34.3287 14.4861 34.3855C14.429 34.3855 14.429 34.4423 14.372 34.3855C14.3149 34.3855 14.2578 34.3287 14.1437 34.2719C13.9725 34.1014 13.8012 33.931 13.63 33.7605C13.2876 33.4196 12.9452 33.0787 12.5457 32.7378C12.774 33.1923 13.0593 33.5901 13.2876 33.9878C13.4017 34.2151 13.5159 34.3855 13.6871 34.6128C13.7442 34.7264 13.8583 34.8401 14.0295 34.9537C14.2008 35.0674 14.429 35.0674 14.6003 35.0105C14.9427 34.8969 15.1139 34.7833 15.3422 34.6696L15.97 34.3287C16.4265 34.1014 16.8261 33.8742 17.2826 33.6469C17.5109 33.5332 17.568 33.2492 17.5109 33.0219V32.9651C17.0543 31.9991 16.6548 31.0332 16.2553 30.0673C15.8558 29.1014 15.5134 28.0786 15.171 27.1127C14.8285 26.09 14.5432 25.1241 14.2578 24.1013C14.0866 23.0218 13.8012 21.999 13.5159 20.9763Z" fill="black"/>
<path d="M6.9527 32.5673C5.98248 31.1468 4.89812 29.7832 4.15619 28.3059C3.41426 26.8286 3.01475 25.1809 3.87083 23.9309C4.66983 22.624 6.21077 21.9422 7.80878 21.6013C9.46386 21.2604 11.176 21.0331 12.8882 20.8626C11.176 20.5785 9.4068 20.5217 7.63757 20.749C6.72442 20.8626 5.86834 21.0899 5.01227 21.4876C4.15619 21.8854 3.41426 22.5672 2.90061 23.3627C2.38696 24.2149 2.21574 25.2945 2.38696 26.2036C2.55817 27.1695 2.95768 27.965 3.41425 28.7605C4.3274 30.2377 5.58298 31.4309 6.9527 32.5673Z" fill="black"/>
<path d="M34.6901 9.27164C35.6032 8.2489 36.231 6.94207 36.4593 5.5216C36.6876 4.15795 36.5735 2.68066 36.0598 1.31701C36.0027 1.14655 35.7745 1.08973 35.6032 1.14655C35.5462 1.14655 35.4891 1.20337 35.432 1.26019C34.9755 1.94201 34.2335 2.39657 33.4916 2.73748C32.7497 3.07839 31.8936 3.24885 31.0375 3.30567C29.3253 3.47612 27.499 3.36249 25.7298 3.58976C22.1343 4.04431 18.6529 4.83977 15.2857 6.14661C11.9184 7.45344 8.72242 9.38528 6.32541 12.1126C5.69762 12.7944 5.12689 13.4762 4.67032 14.2717C4.21375 15.0672 3.81425 15.9194 3.75718 16.8854C3.7001 17.3399 3.75718 17.8513 3.92839 18.249C4.09961 18.7036 4.32789 19.1013 4.61325 19.4422C5.18397 20.124 5.86834 20.6922 6.43906 21.4309C5.98248 20.6922 5.35518 20.0104 4.84154 19.3286C4.32789 18.6467 4.09961 17.7945 4.21375 16.9422C4.3279 16.1467 4.72739 15.3513 5.24104 14.6694C5.75468 13.9876 6.3254 13.3058 6.95319 12.6808C9.40728 10.1807 12.4892 8.47618 15.7423 7.22616C17.3973 6.60116 19.0524 6.14661 20.7646 5.69206C22.4767 5.29432 24.1889 4.95341 25.9581 4.72614C26.8142 4.6125 27.6703 4.55568 28.5834 4.49886C29.4395 4.44204 30.3526 4.44204 31.2658 4.3284C32.1789 4.21477 33.0921 3.98749 33.9482 3.53294C34.8042 3.13521 35.6032 2.5102 36.1169 1.71474L35.5462 1.65792C36.1169 2.85111 36.3452 4.21477 36.231 5.57842C35.9457 6.82843 35.4891 8.13526 34.6901 9.27164Z" fill="black"/>
<path d="M19.4518 11.4876C20.8215 10.3512 22.3624 9.49891 24.0746 9.04436C24.9307 8.76027 25.7867 8.64663 26.6428 8.533C27.4989 8.41936 28.355 8.41936 29.2111 8.47618C30.0671 8.533 30.9232 8.70345 31.7222 8.93073C32.5212 9.158 33.3773 9.49891 34.2905 9.72619C35.2036 9.95347 36.288 9.83983 37.2011 9.38528C38.1143 8.93073 38.7991 8.13526 39.1986 7.16934L38.2284 7.22616C38.7991 8.47618 38.8562 9.89665 38.6279 11.3171C38.3996 12.7376 37.943 14.1581 37.3153 15.4081C36.6875 16.6581 35.6602 17.7376 34.4046 18.1354C33.149 18.5331 31.6651 18.3058 30.1813 18.1354L25.7297 17.5104C24.2458 17.2831 22.7619 17.1126 21.2781 16.9422C20.5361 16.8854 19.7371 16.8285 18.9381 16.9422C18.1391 17.0558 17.3972 17.4535 16.8265 17.9649C15.628 18.9308 14.829 20.2377 13.6305 21.2036C14.886 20.4081 15.7992 19.1013 16.9977 18.3058C17.5684 17.9081 18.2533 17.624 18.9952 17.5104C19.6801 17.4535 20.422 17.5104 21.1639 17.624C24.1317 18.1354 27.0994 18.6467 30.0101 19.1581C30.752 19.2717 31.4939 19.4422 32.2929 19.4422C33.0919 19.499 33.8909 19.4422 34.69 19.2149C35.489 18.9877 36.2309 18.4763 36.8016 17.9081C37.3723 17.3399 37.886 16.6581 38.2284 15.9763C38.9703 14.5558 39.4269 13.0785 39.6552 11.5444C39.8835 10.0103 39.8835 8.30572 39.1416 6.82843C39.0274 6.54434 38.685 6.4307 38.4567 6.60116C38.3425 6.65798 38.2284 6.77161 38.1713 6.88525C37.943 7.56708 37.3723 8.19208 36.7445 8.58981C36.0597 8.98755 35.3177 9.04436 34.5187 8.93073C33.7197 8.81709 32.8637 8.47618 32.0076 8.2489C31.1515 8.02163 30.2383 7.90799 29.3252 7.85117C27.4989 7.79435 25.6726 8.07845 24.0175 8.76027C22.2483 9.27164 20.7074 10.2376 19.4518 11.4876Z" fill="black"/>
<path d="M38.8557 12.4534C38.1708 12.5671 37.6001 12.5103 37.0294 12.3966C36.4587 12.283 35.8309 12.1125 35.2031 11.9989C34.5753 11.8853 33.9475 11.8284 33.3197 11.8284C32.6919 11.8284 32.0071 11.8284 31.3793 11.9421C31.95 12.283 32.5778 12.5103 33.2056 12.6807C33.8334 12.8512 34.4612 13.0216 35.089 13.1353C35.7167 13.2489 36.3445 13.3057 37.0294 13.3057C37.7143 13.2489 38.4562 12.9648 38.8557 12.4534Z" fill="black"/>
<path d="M37.9426 15.1808C36.687 15.124 35.4885 14.783 34.3471 14.3285C33.2057 13.8739 32.0642 13.3626 30.8086 12.9648C30.1808 12.7944 29.496 12.6808 28.8111 12.6808C28.1263 12.6808 27.4414 12.7944 26.8136 13.0217C25.558 13.4194 24.4737 14.158 23.5034 15.0103C24.702 14.5558 25.8434 14.1012 27.0419 13.8739C28.1833 13.6467 29.3248 13.7603 30.5233 14.1012C31.6647 14.3853 32.8632 14.8967 34.1188 15.1808C35.3744 15.5217 36.7441 15.6353 37.9426 15.1808Z" fill="black"/>
<path d="M21.2204 4.95337C19.9649 5.3511 18.7093 5.97611 17.6249 6.65793C16.4835 7.39658 15.4562 8.24886 14.543 9.32842C14.0865 9.83979 13.687 10.408 13.3445 10.9762C13.0021 11.5444 12.7167 12.1694 12.4885 12.8512C12.0319 14.158 11.8607 15.5217 12.0319 16.8285C12.3172 15.5217 12.7167 14.3285 13.2875 13.1921C13.8582 12.0557 14.6001 11.033 15.3991 10.0671C16.1981 9.10114 17.1683 8.24886 18.1386 7.39658C19.1088 6.60112 20.1931 5.80565 21.2204 4.95337Z" fill="black"/>
<path d="M13.8589 7.3398C13.0599 7.79435 12.375 8.41935 11.8043 9.10118C11.2336 9.78301 10.72 10.5785 10.3775 11.4307C10.0351 12.283 9.80681 13.1921 9.69267 14.1012C9.57852 15.0103 9.6356 15.9194 9.86388 16.8285C10.0922 15.9194 10.3205 15.124 10.5487 14.2717C10.777 13.4762 11.1195 12.6808 11.4048 11.8853C11.7473 11.0898 12.0897 10.3512 12.5463 9.61255C12.9458 8.8739 13.4023 8.13526 13.8589 7.3398Z" fill="black"/>
<path d="M9.40725 9.89663C8.8936 10.2944 8.4941 10.8626 8.20874 11.4876C7.92339 12.0557 7.6951 12.7376 7.63803 13.3626C7.52388 14.0444 7.52388 14.6694 7.63803 15.3512C7.75217 16.0331 7.98045 16.6581 8.37995 17.1694L8.55117 15.2944C8.60824 14.6694 8.66532 14.1012 8.77946 13.533C8.89361 12.9648 8.95068 12.3398 9.06482 11.7717C9.17897 11.1466 9.35018 10.5216 9.40725 9.89663Z" fill="black"/>
<path d="M10.7767 20.8058C10.4343 21.4308 10.3201 22.1695 10.3772 22.9081C10.4343 23.6468 10.5484 24.3286 10.7767 25.0104C11.005 25.6922 11.2903 26.3173 11.6898 26.9423C12.0893 27.5104 12.603 28.0786 13.2878 28.4195C13.0025 27.7945 12.7171 27.1695 12.4888 26.5445C12.2606 25.9195 12.0893 25.2945 11.861 24.6695C11.6328 24.0445 11.4615 23.4195 11.2333 22.7945C11.005 22.1695 10.8908 21.5445 10.7767 20.8058Z" fill="black"/>
<path d="M8.95059 20.9763C8.20865 22.0558 8.09451 23.4763 8.43695 24.7263C8.60816 25.3513 8.89352 25.9195 9.23595 26.4877C9.57838 26.9991 10.035 27.5105 10.5486 27.8514C10.4345 27.2264 10.2062 26.6582 10.035 26.09C9.86374 25.5218 9.69252 25.0104 9.52131 24.4422C9.35009 23.8741 9.23595 23.3627 9.17888 22.7945C9.06474 22.1695 9.06473 21.6013 8.95059 20.9763Z" fill="black"/>
<path d="M7.12406 21.2604C6.72456 21.7718 6.49627 22.4536 6.32506 23.0786C6.21092 23.7604 6.21092 24.4422 6.32506 25.0673C6.4392 25.7491 6.66749 26.3741 7.00992 26.9423C7.35235 27.5105 7.80892 28.0218 8.37964 28.3627C8.15135 27.7377 7.98014 27.1695 7.80892 26.6014C7.63771 26.0332 7.52356 25.465 7.40942 24.8968C7.29528 24.3286 7.23821 23.7604 7.18114 23.1354C7.18114 22.5104 7.18113 21.8854 7.12406 21.2604Z" fill="black"/>
<path d="M5.12633 21.9422C4.61268 22.2831 4.09904 22.8513 3.92783 23.5331C3.75661 24.2149 3.75661 24.8968 3.87075 25.5218C3.9849 26.1468 4.21318 26.8286 4.55561 27.3968C4.89804 27.965 5.41169 28.4764 5.98241 28.7605C5.75412 28.1354 5.52584 27.6241 5.35462 27.0559C5.18341 26.4877 5.06926 25.9763 4.95511 25.4081C4.84097 24.84 4.7839 24.2718 4.7839 23.7036C4.7839 23.1922 4.95511 22.624 5.12633 21.9422Z" fill="black"/>
<path d="M25.0449 24.4422C24.9308 23.874 24.7025 23.3627 24.2459 22.9649C24.0176 22.7377 23.7323 22.5672 23.3899 22.4536C23.0474 22.3399 22.705 22.3399 22.3626 22.3967C21.7348 22.5104 21.2211 22.8513 20.8216 23.3058C20.4221 23.7604 20.1938 24.2718 20.1938 24.8399C20.6504 24.499 20.9928 24.1581 21.3923 23.9877C21.7918 23.7604 22.1914 23.5899 22.5909 23.5331C22.9904 23.4763 23.2757 23.4763 23.6752 23.6468C24.1318 23.8172 24.5313 24.1581 25.0449 24.4422Z" fill="black"/>
<path d="M34.9182 22.5104C34.8041 21.9991 34.5187 21.5445 34.1192 21.2036C33.8909 21.0331 33.6056 20.8627 33.3202 20.8059C33.0349 20.749 32.6354 20.749 32.35 20.8627C31.7793 21.0899 31.3798 21.4309 31.0373 21.8286C30.6949 22.2263 30.4666 22.7377 30.4666 23.2491C30.9232 22.965 31.2656 22.7377 31.6651 22.5104C32.0076 22.2831 32.4071 22.0559 32.7495 21.9422C33.0349 21.8286 33.2631 21.8286 33.6626 21.9422C34.0621 22.1127 34.4617 22.34 34.9182 22.5104Z" fill="black"/>
<path d="M28.5831 27.965C28.6973 29.6696 29.268 31.3173 30.067 32.7946C30.2953 33.1923 30.4665 33.5332 30.6948 33.8742C30.8089 34.0446 30.9231 34.2151 31.0372 34.3855C31.0943 34.4992 31.1513 34.556 31.1513 34.556C31.1513 34.556 31.1513 34.556 31.1513 34.4992C31.1513 34.4992 31.1513 34.4992 31.0943 34.4992C30.4094 34.8969 29.6104 35.2378 28.8114 35.4083C29.6675 35.4083 30.5236 35.2378 31.3226 34.8969C31.3796 34.8969 31.4367 34.8401 31.5508 34.7264C31.6079 34.6128 31.6079 34.4423 31.6079 34.3855C31.5508 34.2151 31.4938 34.1583 31.4367 34.0446C31.3226 33.8742 31.2084 33.7037 31.0943 33.5332C30.866 33.1923 30.6948 32.8514 30.4665 32.4537C29.7816 31.0332 29.1538 29.5559 28.5831 27.965Z" fill="black"/>
<path d="M31.7217 40.1242C30.8085 39.897 29.8383 39.7833 28.9822 39.4992C28.1261 39.272 27.3271 38.8742 26.5852 38.2492C26.7564 38.7038 27.0988 39.1015 27.4983 39.3856C27.8978 39.6697 28.3544 39.897 28.811 40.0106C29.8383 40.3515 30.8085 40.3515 31.7217 40.1242Z" fill="black"/>
<path d="M26.7564 37.3401C26.414 37.6242 26.2428 37.9651 26.1286 38.306C26.0145 38.6469 25.9574 38.9878 26.0145 39.4424C26.3569 39.1583 26.5281 38.8174 26.6423 38.4765C26.8135 38.1355 26.8706 37.7378 26.7564 37.3401Z" fill="black"/>
<path d="M20.2508 35.1242C20.2508 36.1469 21.0498 37.1696 22.1912 37.2265C22.7619 37.2833 23.3326 37.056 23.7321 36.7151C24.1316 36.3174 24.417 35.7492 24.417 35.181C24.417 34.6128 24.1887 34.0446 23.7321 33.6469C23.3326 33.2491 22.7049 33.0787 22.1912 33.1355C21.1068 33.0787 20.2508 34.1014 20.2508 35.1242ZM20.2508 35.1242C20.2508 34.6128 20.479 34.1014 20.8786 33.7605C21.2781 33.4196 21.7346 33.2491 22.2483 33.306C23.2185 33.3628 23.9034 34.2151 23.9034 35.1242C23.9034 35.9764 23.2185 36.8855 22.2483 36.9424C21.7917 36.9992 21.2781 36.8287 20.8786 36.4878C20.479 36.1469 20.2508 35.6355 20.2508 35.1242Z" fill="black"/>
<path d="M34.4047 34.1014C34.4047 34.7833 34.6901 35.4083 35.2608 35.8628C35.5462 36.0901 35.8886 36.2606 36.2881 36.3174C36.6876 36.3742 37.0871 36.3742 37.4866 36.2037C37.6008 36.1469 37.6578 36.0333 37.7149 35.9196V35.806C37.9432 34.6696 38.0003 33.4764 37.829 32.3401V32.2264C37.829 32.1128 37.7149 31.9991 37.6008 31.9423C37.2013 31.7719 36.8017 31.7151 36.4022 31.7719C36.0027 31.8287 35.6603 31.9991 35.375 32.2264C34.6901 32.7946 34.4047 33.4764 34.4047 34.1014ZM34.4047 34.1014C34.4047 33.7605 34.5189 33.4196 34.6901 33.1355C34.8613 32.8514 35.1467 32.681 35.432 32.5673C35.7174 32.4537 36.0598 32.4537 36.3452 32.5105C36.6305 32.5673 36.8588 32.681 37.0871 32.8514L36.8588 32.4537C36.7447 33.5901 36.7447 34.6696 36.8017 35.806L37.03 35.4651C36.6305 35.7492 36.0027 35.9196 35.432 35.6355C35.1467 35.5219 34.8613 35.2946 34.6901 35.0105C34.5189 34.7833 34.4047 34.4424 34.4047 34.1014Z" fill="black"/>
<path d="M23.3899 31.2605C22.9802 31.2605 22.648 30.3193 22.648 29.1582C22.648 27.9971 22.9802 27.0559 23.3899 27.0559C23.7997 27.0559 24.1319 27.9971 24.1319 29.1582C24.1319 30.3193 23.7997 31.2605 23.3899 31.2605Z" fill="black"/>
<path d="M33.4344 29.7832C32.9931 29.7832 32.6354 28.7911 32.6354 27.5673C32.6354 26.3435 32.9931 25.3513 33.4344 25.3513C33.8757 25.3513 34.2334 26.3435 34.2334 27.5673C34.2334 28.7911 33.8757 29.7832 33.4344 29.7832Z" fill="black"/>
<path d="M29.325 47.1697C29.1537 47.9084 29.0967 48.7038 29.0396 49.4425C28.9825 50.1811 28.9825 50.9198 28.9825 51.6584C28.9825 52.3971 28.9825 53.1357 29.0396 53.8743C29.0967 54.613 29.1537 55.3516 29.325 56.1471C29.6103 55.4085 29.7815 54.6698 29.8957 53.9312C30.0098 53.1925 30.0669 52.3971 30.0669 51.6584C30.0669 50.9198 30.0098 50.1243 29.8957 49.3857C29.7815 48.647 29.6674 47.9084 29.325 47.1697Z" fill="black"/>
<path d="M29.3821 55.863C28.2977 56.2607 27.2134 56.6017 26.129 56.8858C25.0446 57.1698 23.9603 57.3971 22.8759 57.5676C21.7915 57.738 20.7072 57.7949 19.5657 57.8517C18.4814 57.8517 17.3399 57.8517 16.1985 57.7949C17.2258 58.3062 18.3672 58.5903 19.5657 58.7608C20.7072 58.9312 21.9057 58.9312 23.0471 58.7608C24.1886 58.5903 25.33 58.2494 26.4144 57.7949C27.5558 57.2835 28.5831 56.6585 29.3821 55.863Z" fill="black"/>
</g>
</svg>
